:FULLY-SPECIFIED
:FORCE-ALL-JOINTS-BE-3DOF
:DEGREES
2752
root -5.52781 13.9998 -28.3795 161.941 -65.1731 -161.068
lfemur -59.2575 42.8114 -6.29041
ltibia 67.5255 -0 0
lfoot -2.31458 -1.14313 0.00125477
ltoes -31.3403 0 0
rfemur -30.9131 -18.4887 21.7441
rtibia 81.5725 -0 0
rfoot -34.8113 -24.7186 0.00130565
rtoes -14.4983 0 0
lowerback 15.7988 5.82399 0.577619
upperback -3.98891 8.13569 1.49109
thorax -13.4651 3.8052 -0.873361
lowerneck -2.41027 9.62046 2.05839
upperneck 7.46321 12.5843 1.97348
head 2.79104 6.35212 0.683638
lclavicle 2.24602e-14 -6.23374e-15 1.16799e-32
lhumerus 3.52153 10.6133 83.9521
lradius 94.8672 -0 0
lwrist -19.0625 0 0
lhand -39.8113 27.6373 1.49134e-05
lfingers 7.12502 -0 0
lthumb -12.7858 57.2265 1.45719e-05
rclavicle 2.24602e-14 -6.23374e-15 1.16799e-32
rhumerus -57.7664 51.028 -110.098
rradius 114.065 -0 0
rwrist -84.7505 0 0
rhand 4.53482 -27.0131 0.000211931
rfingers 7.12502 -0 0
rthumb 29.9262 -54.6135 0.000277028
2753
root -5.53296 13.9939 -28.3836 161.953 -65.1797 -161.079
lfemur -59.2955 42.843 -6.2847
ltibia 67.6079 -0 0
lfoot -2.34381 -1.18179 0.00189822
ltoes -31.3437 0 0
rfemur -30.9083 -18.4983 21.7343
rtibia 81.6341 -0 0
rfoot -34.872 -24.7379 0.00197522
rtoes -14.4951 0 0
lowerback 15.7855 5.8236 0.570973
upperback -3.99495 8.1339 1.49206
thorax -13.4652 3.80507 -0.867157
lowerneck -2.41103 9.62027 2.05986
upperneck 7.47858 12.5837 1.97338
head 2.79656 6.35181 0.684037
lclavicle 2.23059e-14 -6.16556e-15 1.76691e-32
lhumerus 3.51806 10.6287 83.9519
lradius 94.8609 -0 0
lwrist -19.0661 0 0
lhand -39.8094 27.6445 2.25607e-05
lfingers 7.12502 -0 0
lthumb -12.784 57.2337 2.2044e-05
rclavicle 2.23059e-14 -6.16556e-15 1.76691e-32
rhumerus -57.7769 51.0144 -110.109
rradius 114.063 -0 0
rwrist -84.7469 0 0
rhand 4.55478 -27.0036 0.000320607
rfingers 7.12502 -0 0
rthumb 29.9452 -54.6004 0.000419085
2754
root -5.53908 13.9868 -28.3884 161.966 -65.1875 -161.093
lfemur -59.3407 42.8805 -6.27795
ltibia 67.7058 -0 0
lfoot -2.37856 -1.22774 0.00263752
ltoes -31.3478 0 0
rfemur -30.9026 -18.5098 21.7227
rtibia 81.7073 -0 0
rfoot -34.9442 -24.7609 0.00274454
rtoes -14.4914 0 0
lowerback 15.7696 5.82314 0.563073
upperback -4.00213 8.13176 1.49321
thorax -13.4654 3.80493 -0.859781
lowerneck -2.41194 9.62005 2.0616
upperneck 7.49686 12.5829 1.97325
head 2.80312 6.35145 0.684511
lclavicle 2.21224e-14 -6.0845e-15 2.45504e-32
lhumerus 3.51394 10.647 83.9516
lradius 94.8535 -0 0
lwrist -19.0704 0 0
lhand -39.8072 27.6529 3.13471e-05
lfingers 7.12502 -0 0
lthumb -12.7818 57.2423 3.06292e-05
rclavicle 2.21224e-14 -6.0845e-15 2.45504e-32
rhumerus -57.7894 50.9982 -110.122
rradius 114.06 -0 0
rwrist -84.7427 0 0
rhand 4.57852 -26.9922 0.000445469
rfingers 7.12502 -0 0
rthumb 29.9678 -54.5848 0.000582301
2755
root -5.54612 13.9787 -28.394 161.982 -65.1965 -161.109
lfemur -59.3927 42.9237 -6.27024
ltibia 67.8183 -0 0
lfoot -2.41847 -1.28053 0.0034523
ltoes -31.3526 0 0
rfemur -30.8961 -18.5231 21.7094
rtibia 81.7915 -0 0
rfoot -35.0271 -24.7874 0.00359241
rtoes -14.4872 0 0
lowerback 15.7515 5.8226 0.553999
upperback -4.01038 8.12931 1.49454
thorax -13.4657 3.80476 -0.851309
lowerneck -2.41298 9.6198 2.06359
upperneck 7.51785 12.582 1.97311
head 2.81065 6.35103 0.685056
lclavicle 2.19117e-14 -5.9914e-15 3.2134e-32
lhumerus 3.50921 10.6679 83.9512
lradius 94.8449 -0 0
lwrist -19.0753 0 0
lhand -39.8046 27.6627 4.10301e-05
lfingers 7.12502 -0 0
lthumb -12.7794 57.2522 4.00905e-05
rclavicle 2.19117e-14 -5.9914e-15 3.2134e-32
rhumerus -57.8037 50.9796 -110.137
rradius 114.057 -0 0
rwrist -84.7379 0 0
rhand 4.60578 -26.9792 0.000583075
rfingers 7.12502 -0 0
rthumb 29.9938 -54.5669 0.000762174
2756
root -5.554 13.9696 -28.4002 161.999 -65.2065 -161.127
lfemur -59.4509 42.972 -6.26166
ltibia 67.9444 -0 0
lfoot -2.4632 -1.33968 0.00432153
ltoes -31.3578 0 0
rfemur -30.8888 -18.5378 21.6944
rtibia 81.8857 -0 0
rfoot -35.12 -24.817 0.00449697
rtoes -14.4824 0 0
lowerback 15.7311 5.822 0.543832
upperback -4.01962 8.12656 1.49602
thorax -13.4659 3.80457 -0.841817
lowerneck -2.41414 9.61951 2.06583
upperneck 7.54138 12.5809 1.97294
head 2.81909 6.35057 0.685666
lclavicle 2.16757e-14 -5.88708e-15 4.02242e-32
lhumerus 3.50391 10.6915 83.9509
lradius 94.8352 -0 0
lwrist -19.0809 0 0
lhand -39.8017 27.6736 5.13602e-05
lfingers 7.12502 -0 0
lthumb -12.7766 57.2633 5.01839e-05
rclavicle 2.16757e-14 -5.88708e-15 4.02242e-32
rhumerus -57.8197 50.9588 -110.153
rradius 114.053 -0 0
rwrist -84.7324 0 0
rhand 4.63633 -26.9645 0.000729876
rfingers 7.12502 -0 0
rthumb 30.023 -54.5469 0.000954067
2757
root -5.56266 13.9596 -28.407 162.018 -65.2176 -161.146
lfemur -59.515 43.0252 -6.25229
ltibia 68.083 -0 0
lfoot -2.51237 -1.40471 0.005224
ltoes -31.3637 0 0
rfemur -30.8807 -18.5541 21.678
rtibia 81.9894 -0 0
rfoot -35.2222 -24.8496 0.00543614
rtoes -14.4771 0 0
lowerback 15.7087 5.82133 0.532653
upperback -4.02978 8.12354 1.49766
thorax -13.4662 3.80436 -0.831379
lowerneck -2.41542 9.6192 2.06829
upperneck 7.56724 12.5798 1.97276
head 2.82837 6.35005 0.686337
lclavicle 2.14161e-14 -5.77238e-15 4.86236e-32
lhumerus 3.49808 10.7173 83.9504
lradius 94.8246 -0 0
lwrist -19.087 0 0
lhand -39.7985 27.6856 6.20849e-05
lfingers 7.12502 -0 0
lthumb -12.7735 57.2754 6.06631e-05
rclavicle 2.14161e-14 -5.77238e-15 4.86236e-32
rhumerus -57.8373 50.9359 -110.172
rradius 114.05 -0 0
rwrist -84.7265 0 0
rhand 4.66992 -26.9484 0.000882288
rfingers 7.12502 -0 0
rthumb 30.055 -54.5248 0.00115329
2758
root -5.57205 13.9488 -28.4144 162.039 -65.2295 -161.168
lfemur -59.5844 43.0828 -6.24223
ltibia 68.2332 -0 0
lfoot -2.56565 -1.47517 0.00613866
ltoes -31.37 0 0
rfemur -30.872 -18.5717 21.6602
rtibia 82.1017 -0 0
rfoot -35.3328 -24.8849 0.00638799
rtoes -14.4714 0 0
lowerback 15.6845 5.8206 0.520544
upperback -4.04079 8.12027 1.49943
thorax -13.4664 3.80413 -0.820073
lowerneck -2.41681 9.61886 2.07096
upperneck 7.59526 12.5786 1.97257
head 2.83843 6.34949 0.687064
lclavicle 2.11349e-14 -5.64813e-15 5.71362e-32
lhumerus 3.49176 10.7453 83.95
lradius 94.8132 -0 0
lwrist -19.0936 0 0
lhand -39.7951 27.6986 7.29543e-05
lfingers 7.12502 -0 0
lthumb -12.7702 57.2886 7.12835e-05
rclavicle 2.11349e-14 -5.64813e-15 5.71362e-32
rhumerus -57.8563 50.9111 -110.191
rradius 114.045 -0 0
rwrist -84.72 0 0
rhand 4.7063 -26.931 0.00103675
rfingers 7.12502 -0 0
rthumb 30.0897 -54.501 0.00135521
2759
root -5.58209 13.9372 -28.4224 162.061 -65.2423 -161.19
lfemur -59.6588 43.1445 -6.23155
ltibia 68.3938 -0 0
lfoot -2.62266 -1.55057 0.00704496
ltoes -31.3767 0 0
rfemur -30.8626 -18.5906 21.6411
rtibia 82.2218 -0 0
rfoot -35.4513 -24.9226 0.00733117
rtoes -14.4654 0 0
lowerback 15.6586 5.81981 0.507585
upperback -4.05257 8.11677 1.50132
thorax -13.4667 3.80389 -0.807973
lowerneck -2.41829 9.61849 2.07382
upperneck 7.62524 12.5773 1.97236
head 2.84919 6.3489 0.687841
lclavicle 2.0834e-14 -5.51515e-15 6.55709e-32
lhumerus 3.485 10.7753 83.9495
lradius 94.8009 -0 0
lwrist -19.1007 0 0
lhand -39.7914 27.7125 8.3724e-05
lfingers 7.12502 -0 0
lthumb -12.7667 57.3027 8.18066e-05
rclavicle 2.0834e-14 -5.51515e-15 6.55709e-32
rhumerus -57.8767 50.8845 -110.212
rradius 114.041 -0 0
rwrist -84.7131 0 0
rhand 4.74524 -26.9124 0.00118981
rfingers 7.12502 -0 0
rthumb 30.1268 -54.4754 0.00155527
